<svg xmlns="http://www.w3.org/2000/svg" width="1200" height="1200" viewBox="0 0 1200 1200">
  <defs>
    <linearGradient id="bg" x1="0" y1="0" x2="1" y2="1">
      <stop offset="0" stop-color="#a78bfa"/>
      <stop offset="0.45" stop-color="#22d3ee"/>
      <stop offset="0.85" stop-color="#39e08f"/>
      <stop offset="1" stop-color="#ff5476"/>
    </linearGradient>
    <filter id="soft" x="-20%" y="-20%" width="140%" height="140%">
      <feGaussianBlur stdDeviation="22" result="b"/>
      <feColorMatrix in="b" type="matrix" values="
        1 0 0 0 0
        0 1 0 0 0
        0 0 1 0 0
        0 0 0 0.28 0" result="s"/>
      <feMerge>
        <feMergeNode in="s"/>
        <feMergeNode in="SourceGraphic"/>
      </feMerge>
    </filter>
  </defs>

  <rect width="1200" height="1200" fill="#0b1027"/>
  <circle cx="320" cy="360" r="360" fill="url(#bg)" filter="url(#soft)" opacity="0.7"/>
  <circle cx="900" cy="420" r="420" fill="url(#bg)" filter="url(#soft)" opacity="0.35"/>
  <circle cx="620" cy="980" r="420" fill="url(#bg)" filter="url(#soft)" opacity="0.22"/>

  <rect x="90" y="90" width="1020" height="1020" rx="64" fill="rgba(255,255,255,0.06)" stroke="rgba(255,255,255,0.18)" stroke-width="2"/>

  <g transform="translate(0,10)">
    <path d="M600 420c-90 0-160 70-160 160s70 160 160 160 160-70 160-160-70-160-160-160Z" fill="rgba(255,255,255,0.14)"/>
    <path d="M740 560a140 140 0 1 1-280 0 140 140 0 0 1 280 0Z" fill="rgba(255,255,255,0.08)"/>
    <path d="M510 650l70-80 60 60 70-90 110 150H510Z" fill="rgba(255,255,255,0.22)"/>
    <circle cx="530" cy="520" r="22" fill="rgba(255,255,255,0.22)"/>
  </g>

  <text x="600" y="820" text-anchor="middle" font-family="Plus Jakarta Sans, system-ui, sans-serif" font-size="44" fill="rgba(255,255,255,0.9)" font-weight="800">
    Add your photo
  </text>
  <text x="600" y="872" text-anchor="middle" font-family="ui-monospace, SFMono-Regular, Menlo, Monaco, Consolas, Liberation Mono, Courier New, monospace" font-size="22" fill="rgba(255,255,255,0.72)">
    assets/*.jpg
  </text>
</svg>
